# xmcd
#
# Track frame offsets:
#	150
#	16322
#	38517
#	57759
#	71612
#	90361
#	108515
#	126750
#	148555
#	167145
#	186325
#	203545
#	220955
#	241783
#	264754
#	283581
#	301426
#	314680
#	331982
#
# Disc length: 4640 seconds
#
# Revision: 1
# Processed by: cddbd v1.5.2PL0 Copyright (c) Steve Scherf et al.
# Submitted via: audiograbber 1.83.01
#
DISCID=09121e13
DTITLE=Various Artist - R&B and Chill
DYEAR=2016
DGENRE=R&B
TTITLE0=Montell Jordan - Get It On Tonite
TTITLE1=LL Cool J - Doin' It
TTITLE2=R. Kelly - Bump N' Grind
TTITLE3=Kelis - Milshake
TTITLE4=Usher - U Got It Bad
TTITLE5=Brandy and Monica - The Boy Is Mine
TTITLE6=Donell Jones - U Know What's Up
TTITLE7=Nelly - Ride Wit Me
TTITLE8=Ja Rule - Always On Time
TTITLE9=Sisqo - Thong Song
TTITLE10=Shaggy - It Wasn't Me
TTITLE11=Eve - Let Me Blow Ya Mind
TTITLE12=Faith Evans - Love Like This
TTITLE13=Blackstreet - No Diggity
TTITLE14=Warren G - Regulate
TTITLE15=Mya - Case Of The Ex
TTITLE16=City High - What Would You Do?
TTITLE17=Fat Joe - What's Luv?
TTITLE18=Beenie Man - Dude
EXTD=
EXTT0=
EXTT1=
EXTT2=
EXTT3=
EXTT4=
EXTT5=
EXTT6=
EXTT7=
EXTT8=
EXTT9=
EXTT10=
EXTT11=
EXTT12=
EXTT13=
EXTT14=
EXTT15=
EXTT16=
EXTT17=
EXTT18=
PLAYORDER=
